<svg width="2012" height="781" viewBox="0 0 2012 781" fill="none" xmlns="http://www.w3.org/2000/svg">
<g clip-path="url(#clip0_201_17)">
<path fill-rule="evenodd" clip-rule="evenodd" d="M204.505 66.0704C291.993 15.0852 304.027 8.73562 323.309 3.385C329.498 1.66488 342.442 0.155069 352.072 0.0273754C385.972 -0.420808 394.485 3.61285 543.313 90.5926C618.337 134.437 683.931 174.419 689.078 179.442C702.05 192.101 705.846 202.805 705.566 228.53C705.575 228.892 705.58 229.255 705.58 229.619V308.535C705.58 317.366 696.173 323.014 688.381 318.861L640.765 293.477C630.004 287.74 623.283 276.539 623.283 264.343V229.619C623.283 226.182 621.725 222.816 618.756 221.082C617.248 220.2 615.889 219.407 615.507 219.188C601.353 211.066 583.58 200.938 555.115 184.706C384.301 87.3052 383.788 87.0445 359.687 85.495C333.73 83.8273 322.028 87.991 272.867 116.377C240.196 135.242 210.749 155.162 177.26 174.197C137.413 200.226 111.965 214.307 96.4089 227.764C84.8541 237.761 80.7544 252.952 80.6555 268.23C80.4593 298.548 81.6881 351.108 81.6881 386.463C81.6881 386.463 81.8496 501.578 81.6881 524.319C81.5265 547.06 102.776 556.935 120.099 568.734C132.802 577.387 147.814 587.191 180.726 609.688C210.751 628.145 249.188 651.694 270.176 663.917C314.924 689.975 330.256 695.871 353.258 695.871C378.291 695.871 390.009 691.187 444.612 659.37C472.125 643.336 522.209 614.416 555.913 595.094C562.823 591.132 569.636 587.292 576.095 583.652C601.147 569.54 620.94 558.388 620.94 554.406C620.94 550.34 615.312 547.223 596.669 536.892C592.353 534.502 587.34 531.727 581.537 528.46L553.907 512.916L538.029 523.868C503.256 547.858 391.997 611.625 375.135 617.233C357.97 622.94 334.908 620.922 318.366 612.264C311.458 608.645 289.203 595.771 268.91 583.648C262.493 579.817 256.57 576.485 250.599 573.127C237.692 565.863 224.564 558.48 205.753 545.642C182.419 529.714 159.259 511.733 151.98 498.069C141.975 479.289 140.103 458.191 149.57 438.818C157.703 422.182 168.905 412.564 199.933 395.593C213.451 388.197 245.133 369.832 270.335 354.777C295.535 339.725 319.979 325.808 324.653 323.855C329.996 320.619 341.664 316.684 353.335 316.759C364.402 316.83 375.473 320.74 381.155 323.87C385.794 325.833 410.955 339.879 437.067 355.082C463.18 370.288 485.4 381.875 486.437 380.836C487.476 379.796 487.605 366.329 486.726 350.91C485.827 335.2 485.304 325.585 481.428 317.604C475.24 304.885 460.515 296.319 422.104 273.844C372.545 244.85 365.842 244.148 353.335 242.896L353.051 242.96C341.874 245.443 329.334 248.231 225.763 307.779C180.235 333.958 159.922 345.338 154.217 345.338C149.809 345.338 146.236 341.763 146.236 337.353V323.855C146.236 319.528 146.17 315.434 146.107 311.575C145.866 296.634 145.682 285.229 149.612 277.547C151.423 274.002 157.206 267.211 162.461 262.46C173.167 252.774 315.663 168.817 330.216 163.616C343.132 159.002 362.206 159.392 377.082 164.577C388.95 168.716 515.266 240.335 537.724 255.659C543.534 259.624 551.133 267.722 554.606 273.653C558.745 281.261 560.917 289.783 560.917 298.446V354.948C560.917 418.765 561.331 425.876 565.291 429.843C567.702 432.25 588.008 444.927 610.429 458.006C681.367 499.409 688.656 504.746 697.12 521.477C702.355 531.832 705.551 543.14 705.551 552.241V552.683C705.551 564.564 705.551 570.443 698.541 584.698C698.16 585.277 697.788 585.846 697.43 586.402C687.007 602.364 683.139 608.285 634.7 636.964C594.324 660.87 438.768 751.344 418.351 762.794C399.185 773.537 372.229 781 352.556 781C334.302 781 307.753 773.274 287.043 762.643C240.774 738.893 195.701 715.227 134.533 675.444C55.9709 624.347 39.8888 616 20.3432 593.639C-2.89902 567.05 1.06626 557.021 0.432731 466.586C0.348227 454.524 0.516828 367.363 0.432731 356.277C-0.020831 296.492 -0.352442 252.781 0.689851 245.268C6.31738 204.756 42.4514 160.038 93.2041 130.771C107.648 122.441 157.733 93.3268 204.505 66.0704ZM241.535 475.812C234.151 471.005 234.328 462.402 241.909 457.912C270.441 441.014 333.242 405.857 339.936 403.417C349.26 400.018 357.763 399.793 367.355 403.417C382.202 409.021 482.13 459.545 482.13 466.586C482.13 473.631 391.682 523.885 367.355 535.238C353.449 541.727 352.33 539.559 339.936 535.238C332.133 532.511 269.76 494.185 241.535 475.812Z" fill="white"/>
</g>
<path d="M1015.63 507.818C965.803 512.287 924.462 514.521 891.613 514.521C869.714 514.521 853.625 509.382 843.346 499.103C833.066 488.823 827.927 472.734 827.927 450.835V343.573C827.927 320.109 833.178 303.126 843.681 292.624C854.407 281.897 871.502 276.534 894.965 276.534H1015.63V323.461H908.373C894.965 323.461 888.262 330.165 888.262 343.573V450.835C888.262 455.974 889.714 460.108 892.619 463.237C895.748 466.142 899.658 467.594 904.351 467.594C909.044 467.594 914.183 467.594 919.77 467.594C925.356 467.371 931.166 467.147 937.2 466.924C943.233 466.701 949.267 466.477 955.3 466.254C961.557 466.03 969.49 465.583 979.099 464.913C988.931 464.242 1001.11 463.46 1015.63 462.567V507.818Z" fill="white"/>
<path d="M1210.09 340.221C1210.09 326.813 1203.38 320.109 1189.97 320.109H1132.99C1119.58 320.109 1112.88 326.813 1112.88 340.221V447.483C1112.88 460.891 1119.58 467.594 1132.99 467.594H1189.97C1203.38 467.594 1210.09 460.891 1210.09 447.483V340.221ZM1270.42 447.483C1270.42 470.946 1265.06 488.041 1254.33 498.767C1243.83 509.27 1226.85 514.521 1203.38 514.521H1119.58C1096.12 514.521 1079.03 509.27 1068.3 498.767C1057.8 488.041 1052.55 470.946 1052.55 447.483V340.221C1052.55 316.757 1057.8 299.774 1068.3 289.272C1079.03 278.545 1096.12 273.182 1119.58 273.182H1203.38C1226.85 273.182 1243.83 278.545 1254.33 289.272C1265.06 299.774 1270.42 316.757 1270.42 340.221V447.483Z" fill="white"/>
<path d="M1356.21 511.169H1290.85L1379.67 276.534H1446.71L1535.54 511.169H1470.18L1455.09 469.27H1371.29L1356.21 511.169ZM1386.38 425.695H1440.01L1413.19 346.925L1386.38 425.695Z" fill="white"/>
<path d="M1569.04 276.534H1709.83C1733.29 276.534 1750.27 281.897 1760.77 292.624C1771.5 303.126 1776.86 320.109 1776.86 343.573V373.74C1776.86 392.288 1773.74 406.701 1767.48 416.98C1761.44 427.26 1751.72 434.075 1738.32 437.427L1780.22 511.169H1714.85L1676.31 440.779H1629.38V511.169H1569.04V276.534ZM1716.53 343.573C1716.53 330.165 1709.83 323.461 1696.42 323.461H1629.38V393.852H1696.42C1709.83 393.852 1716.53 387.148 1716.53 373.74V343.573Z" fill="white"/>
<path d="M1941.02 511.169H1880.68V323.461H1810.29V276.534H2011.41V323.461H1941.02V511.169Z" fill="white"/>
<defs>
<clipPath id="clip0_201_17">
<rect width="705.582" height="781" fill="white"/>
</clipPath>
</defs>
</svg>
